<?xml version="1.0" encoding="UTF-8" standalone="no"?><svg xmlns="http://www.w3.org/2000/svg" xmlns:xlink="http://www.w3.org/1999/xlink" contentScriptType="application/ecmascript" contentStyleType="text/css" height="850px" preserveAspectRatio="none" style="width:2193px;height:850px;" version="1.1" viewBox="0 0 2193 850" width="2193px" zoomAndPan="magnify"><defs><filter height="300%" id="fv1ovw1qzyr7i" width="300%" x="-1" y="-1"><feGaussianBlur result="blurOut" stdDeviation="2.0"/><feColorMatrix in="blurOut" result="blurOut2" type="matrix" values="0 0 0 0 0 0 0 0 0 0 0 0 0 0 0 0 0 0 .4 0"/><feOffset dx="4.0" dy="4.0" in="blurOut2" result="blurOut3"/><feBlend in="SourceGraphic" in2="blurOut3" mode="normal"/></filter></defs><g><!--MD5=[657d6095031157d121c9366546c413da]
class TE--><rect codeLine="3" fill="#FEFECE" filter="url(#fv1ovw1qzyr7i)" height="48" id="TE" style="stroke:#A80036;stroke-width:1.5;" width="153" x="214" y="288"/><ellipse cx="229" cy="304" fill="#ADD1B2" rx="11" ry="11" style="stroke:#A80036;stroke-width:1.0;"/><path d="M231.9688,309.6406 Q231.3906,309.9375 230.75,310.0781 Q230.1094,310.2344 229.4063,310.2344 Q226.9063,310.2344 225.5781,308.5938 Q224.2656,306.9375 224.2656,303.8125 Q224.2656,300.6875 225.5781,299.0313 Q226.9063,297.375 229.4063,297.375 Q230.1094,297.375 230.75,297.5313 Q231.4063,297.6875 231.9688,297.9844 L231.9688,300.7031 Q231.3438,300.125 230.75,299.8594 Q230.1563,299.5781 229.5313,299.5781 Q228.1875,299.5781 227.5,300.6563 Q226.8125,301.7188 226.8125,303.8125 Q226.8125,305.9063 227.5,306.9844 Q228.1875,308.0469 229.5313,308.0469 Q230.1563,308.0469 230.75,307.7813 Q231.3438,307.5 231.9688,306.9219 L231.9688,309.6406 Z " fill="#000000"/><text fill="#000000" font-family="sans-serif" font-size="12" lengthAdjust="spacing" textLength="121" x="243" y="308.1543">Technical Expertise</text><line style="stroke:#A80036;stroke-width:1.5;" x1="215" x2="366" y1="320" y2="320"/><line style="stroke:#A80036;stroke-width:1.5;" x1="215" x2="366" y1="328" y2="328"/><!--MD5=[5943e9aa38f0fc7e8c857116be1f7479]
class SD--><rect codeLine="5" fill="#FEFECE" filter="url(#fv1ovw1qzyr7i)" height="48" id="SD" style="stroke:#A80036;stroke-width:1.5;" width="131" x="370" y="413"/><ellipse cx="385" cy="429" fill="#ADD1B2" rx="11" ry="11" style="stroke:#A80036;stroke-width:1.0;"/><path d="M387.9688,434.6406 Q387.3906,434.9375 386.75,435.0781 Q386.1094,435.2344 385.4063,435.2344 Q382.9063,435.2344 381.5781,433.5938 Q380.2656,431.9375 380.2656,428.8125 Q380.2656,425.6875 381.5781,424.0313 Q382.9063,422.375 385.4063,422.375 Q386.1094,422.375 386.75,422.5313 Q387.4063,422.6875 387.9688,422.9844 L387.9688,425.7031 Q387.3438,425.125 386.75,424.8594 Q386.1563,424.5781 385.5313,424.5781 Q384.1875,424.5781 383.5,425.6563 Q382.8125,426.7188 382.8125,428.8125 Q382.8125,430.9063 383.5,431.9844 Q384.1875,433.0469 385.5313,433.0469 Q386.1563,433.0469 386.75,432.7813 Q387.3438,432.5 387.9688,431.9219 L387.9688,434.6406 Z " fill="#000000"/><text fill="#000000" font-family="sans-serif" font-size="12" lengthAdjust="spacing" textLength="99" x="399" y="433.1543">Systems Design</text><line style="stroke:#A80036;stroke-width:1.5;" x1="371" x2="500" y1="445" y2="445"/><line style="stroke:#A80036;stroke-width:1.5;" x1="371" x2="500" y1="453" y2="453"/><!--MD5=[7372bbf51d55cfb0901280a97d9d0909]
class PS--><rect codeLine="7" fill="#FEFECE" filter="url(#fv1ovw1qzyr7i)" height="48" id="PS" style="stroke:#A80036;stroke-width:1.5;" width="131" x="7" y="132"/><ellipse cx="22" cy="148" fill="#ADD1B2" rx="11" ry="11" style="stroke:#A80036;stroke-width:1.0;"/><path d="M24.9688,153.6406 Q24.3906,153.9375 23.75,154.0781 Q23.1094,154.2344 22.4063,154.2344 Q19.9063,154.2344 18.5781,152.5938 Q17.2656,150.9375 17.2656,147.8125 Q17.2656,144.6875 18.5781,143.0313 Q19.9063,141.375 22.4063,141.375 Q23.1094,141.375 23.75,141.5313 Q24.4063,141.6875 24.9688,141.9844 L24.9688,144.7031 Q24.3438,144.125 23.75,143.8594 Q23.1563,143.5781 22.5313,143.5781 Q21.1875,143.5781 20.5,144.6563 Q19.8125,145.7188 19.8125,147.8125 Q19.8125,149.9063 20.5,150.9844 Q21.1875,152.0469 22.5313,152.0469 Q23.1563,152.0469 23.75,151.7813 Q24.3438,151.5 24.9688,150.9219 L24.9688,153.6406 Z " fill="#000000"/><text fill="#000000" font-family="sans-serif" font-size="12" lengthAdjust="spacing" textLength="99" x="36" y="152.1543">Problem-Solving</text><line style="stroke:#A80036;stroke-width:1.5;" x1="8" x2="137" y1="164" y2="164"/><line style="stroke:#A80036;stroke-width:1.5;" x1="8" x2="137" y1="172" y2="172"/><!--MD5=[d68c9369472fd2c8081ca2424f4233ba]
class CS--><rect codeLine="9" fill="#FEFECE" filter="url(#fv1ovw1qzyr7i)" height="48" id="CS" style="stroke:#A80036;stroke-width:1.5;" width="163" x="1246" y="132"/><ellipse cx="1261" cy="148" fill="#ADD1B2" rx="11" ry="11" style="stroke:#A80036;stroke-width:1.0;"/><path d="M1263.9688,153.6406 Q1263.3906,153.9375 1262.75,154.0781 Q1262.1094,154.2344 1261.4063,154.2344 Q1258.9063,154.2344 1257.5781,152.5938 Q1256.2656,150.9375 1256.2656,147.8125 Q1256.2656,144.6875 1257.5781,143.0313 Q1258.9063,141.375 1261.4063,141.375 Q1262.1094,141.375 1262.75,141.5313 Q1263.4063,141.6875 1263.9688,141.9844 L1263.9688,144.7031 Q1263.3438,144.125 1262.75,143.8594 Q1262.1563,143.5781 1261.5313,143.5781 Q1260.1875,143.5781 1259.5,144.6563 Q1258.8125,145.7188 1258.8125,147.8125 Q1258.8125,149.9063 1259.5,150.9844 Q1260.1875,152.0469 1261.5313,152.0469 Q1262.1563,152.0469 1262.75,151.7813 Q1263.3438,151.5 1263.9688,150.9219 L1263.9688,153.6406 Z " fill="#000000"/><text fill="#000000" font-family="sans-serif" font-size="12" lengthAdjust="spacing" textLength="131" x="1275" y="152.1543">Communication Skills</text><line style="stroke:#A80036;stroke-width:1.5;" x1="1247" x2="1408" y1="164" y2="164"/><line style="stroke:#A80036;stroke-width:1.5;" x1="1247" x2="1408" y1="172" y2="172"/><!--MD5=[ce26f7d1346c61756d71df2e3432b601]
class PM--><rect codeLine="11" fill="#FEFECE" filter="url(#fv1ovw1qzyr7i)" height="48" id="PM" style="stroke:#A80036;stroke-width:1.5;" width="162" x="1508.5" y="288"/><ellipse cx="1523.5" cy="304" fill="#ADD1B2" rx="11" ry="11" style="stroke:#A80036;stroke-width:1.0;"/><path d="M1526.4688,309.6406 Q1525.8906,309.9375 1525.25,310.0781 Q1524.6094,310.2344 1523.9063,310.2344 Q1521.4063,310.2344 1520.0781,308.5938 Q1518.7656,306.9375 1518.7656,303.8125 Q1518.7656,300.6875 1520.0781,299.0313 Q1521.4063,297.375 1523.9063,297.375 Q1524.6094,297.375 1525.25,297.5313 Q1525.9063,297.6875 1526.4688,297.9844 L1526.4688,300.7031 Q1525.8438,300.125 1525.25,299.8594 Q1524.6563,299.5781 1524.0313,299.5781 Q1522.6875,299.5781 1522,300.6563 Q1521.3125,301.7188 1521.3125,303.8125 Q1521.3125,305.9063 1522,306.9844 Q1522.6875,308.0469 1524.0313,308.0469 Q1524.6563,308.0469 1525.25,307.7813 Q1525.8438,307.5 1526.4688,306.9219 L1526.4688,309.6406 Z " fill="#000000"/><text fill="#000000" font-family="sans-serif" font-size="12" lengthAdjust="spacing" textLength="130" x="1537.5" y="308.1543">Project Management</text><line style="stroke:#A80036;stroke-width:1.5;" x1="1509.5" x2="1669.5" y1="320" y2="320"/><line style="stroke:#A80036;stroke-width:1.5;" x1="1509.5" x2="1669.5" y1="328" y2="328"/><!--MD5=[b1c00618fa17f855d161476f4cd9f71d]
class BA--><rect codeLine="13" fill="#FEFECE" filter="url(#fv1ovw1qzyr7i)" height="48" id="BA" style="stroke:#A80036;stroke-width:1.5;" width="142" x="1546.5" y="413"/><ellipse cx="1561.5" cy="429" fill="#ADD1B2" rx="11" ry="11" style="stroke:#A80036;stroke-width:1.0;"/><path d="M1564.4688,434.6406 Q1563.8906,434.9375 1563.25,435.0781 Q1562.6094,435.2344 1561.9063,435.2344 Q1559.4063,435.2344 1558.0781,433.5938 Q1556.7656,431.9375 1556.7656,428.8125 Q1556.7656,425.6875 1558.0781,424.0313 Q1559.4063,422.375 1561.9063,422.375 Q1562.6094,422.375 1563.25,422.5313 Q1563.9063,422.6875 1564.4688,422.9844 L1564.4688,425.7031 Q1563.8438,425.125 1563.25,424.8594 Q1562.6563,424.5781 1562.0313,424.5781 Q1560.6875,424.5781 1560,425.6563 Q1559.3125,426.7188 1559.3125,428.8125 Q1559.3125,430.9063 1560,431.9844 Q1560.6875,433.0469 1562.0313,433.0469 Q1562.6563,433.0469 1563.25,432.7813 Q1563.8438,432.5 1564.4688,431.9219 L1564.4688,434.6406 Z " fill="#000000"/><text fill="#000000" font-family="sans-serif" font-size="12" lengthAdjust="spacing" textLength="110" x="1575.5" y="433.1543">Business Acumen</text><line style="stroke:#A80036;stroke-width:1.5;" x1="1547.5" x2="1687.5" y1="445" y2="445"/><line style="stroke:#A80036;stroke-width:1.5;" x1="1547.5" x2="1687.5" y1="453" y2="453"/><!--MD5=[5654cceaeea876a793b81ab09c1670e9]
class TC--><rect codeLine="15" fill="#FEFECE" filter="url(#fv1ovw1qzyr7i)" height="48" id="TC" style="stroke:#A80036;stroke-width:1.5;" width="153" x="1258" y="663"/><ellipse cx="1273" cy="679" fill="#ADD1B2" rx="11" ry="11" style="stroke:#A80036;stroke-width:1.0;"/><path d="M1275.9688,684.6406 Q1275.3906,684.9375 1274.75,685.0781 Q1274.1094,685.2344 1273.4063,685.2344 Q1270.9063,685.2344 1269.5781,683.5938 Q1268.2656,681.9375 1268.2656,678.8125 Q1268.2656,675.6875 1269.5781,674.0313 Q1270.9063,672.375 1273.4063,672.375 Q1274.1094,672.375 1274.75,672.5313 Q1275.4063,672.6875 1275.9688,672.9844 L1275.9688,675.7031 Q1275.3438,675.125 1274.75,674.8594 Q1274.1563,674.5781 1273.5313,674.5781 Q1272.1875,674.5781 1271.5,675.6563 Q1270.8125,676.7188 1270.8125,678.8125 Q1270.8125,680.9063 1271.5,681.9844 Q1272.1875,683.0469 1273.5313,683.0469 Q1274.1563,683.0469 1274.75,682.7813 Q1275.3438,682.5 1275.9688,681.9219 L1275.9688,684.6406 Z " fill="#000000"/><text fill="#000000" font-family="sans-serif" font-size="12" lengthAdjust="spacing" textLength="121" x="1287" y="683.1543">Team Collaboration</text><line style="stroke:#A80036;stroke-width:1.5;" x1="1259" x2="1410" y1="695" y2="695"/><line style="stroke:#A80036;stroke-width:1.5;" x1="1259" x2="1410" y1="703" y2="703"/><!--MD5=[6aecd51c4208337097d56a0a23607946]
class CC--><rect codeLine="17" fill="#FEFECE" filter="url(#fv1ovw1qzyr7i)" height="48" id="CC" style="stroke:#A80036;stroke-width:1.5;" width="138" x="695.5" y="538"/><ellipse cx="710.5" cy="554" fill="#ADD1B2" rx="11" ry="11" style="stroke:#A80036;stroke-width:1.0;"/><path d="M713.4688,559.6406 Q712.8906,559.9375 712.25,560.0781 Q711.6094,560.2344 710.9063,560.2344 Q708.4063,560.2344 707.0781,558.5938 Q705.7656,556.9375 705.7656,553.8125 Q705.7656,550.6875 707.0781,549.0313 Q708.4063,547.375 710.9063,547.375 Q711.6094,547.375 712.25,547.5313 Q712.9063,547.6875 713.4688,547.9844 L713.4688,550.7031 Q712.8438,550.125 712.25,549.8594 Q711.6563,549.5781 711.0313,549.5781 Q709.6875,549.5781 709,550.6563 Q708.3125,551.7188 708.3125,553.8125 Q708.3125,555.9063 709,556.9844 Q709.6875,558.0469 711.0313,558.0469 Q711.6563,558.0469 712.25,557.7813 Q712.8438,557.5 713.4688,556.9219 L713.4688,559.6406 Z " fill="#000000"/><text fill="#000000" font-family="sans-serif" font-size="12" lengthAdjust="spacing" textLength="106" x="724.5" y="558.1543">Cloud Computing</text><line style="stroke:#A80036;stroke-width:1.5;" x1="696.5" x2="832.5" y1="570" y2="570"/><line style="stroke:#A80036;stroke-width:1.5;" x1="696.5" x2="832.5" y1="578" y2="578"/><!--MD5=[ab379e9e493fa8e8da7f6ab346fb535e]
class SC--><rect codeLine="19" fill="#FEFECE" filter="url(#fv1ovw1qzyr7i)" height="48" id="SC" style="stroke:#A80036;stroke-width:1.5;" width="158" x="581.5" y="663"/><ellipse cx="596.5" cy="679" fill="#ADD1B2" rx="11" ry="11" style="stroke:#A80036;stroke-width:1.0;"/><path d="M599.4688,684.6406 Q598.8906,684.9375 598.25,685.0781 Q597.6094,685.2344 596.9063,685.2344 Q594.4063,685.2344 593.0781,683.5938 Q591.7656,681.9375 591.7656,678.8125 Q591.7656,675.6875 593.0781,674.0313 Q594.4063,672.375 596.9063,672.375 Q597.6094,672.375 598.25,672.5313 Q598.9063,672.6875 599.4688,672.9844 L599.4688,675.7031 Q598.8438,675.125 598.25,674.8594 Q597.6563,674.5781 597.0313,674.5781 Q595.6875,674.5781 595,675.6563 Q594.3125,676.7188 594.3125,678.8125 Q594.3125,680.9063 595,681.9844 Q595.6875,683.0469 597.0313,683.0469 Q597.6563,683.0469 598.25,682.7813 Q598.8438,682.5 599.4688,681.9219 L599.4688,684.6406 Z " fill="#000000"/><text fill="#000000" font-family="sans-serif" font-size="12" lengthAdjust="spacing" textLength="126" x="610.5" y="683.1543">Security Compliance</text><line style="stroke:#A80036;stroke-width:1.5;" x1="582.5" x2="738.5" y1="695" y2="695"/><line style="stroke:#A80036;stroke-width:1.5;" x1="582.5" x2="738.5" y1="703" y2="703"/><!--MD5=[69b6865104dc59fcb4d240d8b5f2ae4e]
class VM--><rect codeLine="21" fill="#FEFECE" filter="url(#fv1ovw1qzyr7i)" height="48" id="VM" style="stroke:#A80036;stroke-width:1.5;" width="163" x="579" y="788"/><ellipse cx="594" cy="804" fill="#ADD1B2" rx="11" ry="11" style="stroke:#A80036;stroke-width:1.0;"/><path d="M596.9688,809.6406 Q596.3906,809.9375 595.75,810.0781 Q595.1094,810.2344 594.4063,810.2344 Q591.9063,810.2344 590.5781,808.5938 Q589.2656,806.9375 589.2656,803.8125 Q589.2656,800.6875 590.5781,799.0313 Q591.9063,797.375 594.4063,797.375 Q595.1094,797.375 595.75,797.5313 Q596.4063,797.6875 596.9688,797.9844 L596.9688,800.7031 Q596.3438,800.125 595.75,799.8594 Q595.1563,799.5781 594.5313,799.5781 Q593.1875,799.5781 592.5,800.6563 Q591.8125,801.7188 591.8125,803.8125 Q591.8125,805.9063 592.5,806.9844 Q593.1875,808.0469 594.5313,808.0469 Q595.1563,808.0469 595.75,807.7813 Q596.3438,807.5 596.9688,806.9219 L596.9688,809.6406 Z " fill="#000000"/><text fill="#000000" font-family="sans-serif" font-size="12" lengthAdjust="spacing" textLength="131" x="608" y="808.1543">Vendor Management</text><line style="stroke:#A80036;stroke-width:1.5;" x1="580" x2="741" y1="820" y2="820"/><line style="stroke:#A80036;stroke-width:1.5;" x1="580" x2="741" y1="828" y2="828"/><!--MD5=[5de2a4dd668a3cd575077407e850da24]
class DM--><rect codeLine="23" fill="#FEFECE" filter="url(#fv1ovw1qzyr7i)" height="48" id="DM" style="stroke:#A80036;stroke-width:1.5;" width="122" x="194.5" y="132"/><ellipse cx="209.5" cy="148" fill="#ADD1B2" rx="11" ry="11" style="stroke:#A80036;stroke-width:1.0;"/><path d="M212.4688,153.6406 Q211.8906,153.9375 211.25,154.0781 Q210.6094,154.2344 209.9063,154.2344 Q207.4063,154.2344 206.0781,152.5938 Q204.7656,150.9375 204.7656,147.8125 Q204.7656,144.6875 206.0781,143.0313 Q207.4063,141.375 209.9063,141.375 Q210.6094,141.375 211.25,141.5313 Q211.9063,141.6875 212.4688,141.9844 L212.4688,144.7031 Q211.8438,144.125 211.25,143.8594 Q210.6563,143.5781 210.0313,143.5781 Q208.6875,143.5781 208,144.6563 Q207.3125,145.7188 207.3125,147.8125 Q207.3125,149.9063 208,150.9844 Q208.6875,152.0469 210.0313,152.0469 Q210.6563,152.0469 211.25,151.7813 Q211.8438,151.5 212.4688,150.9219 L212.4688,153.6406 Z " fill="#000000"/><text fill="#000000" font-family="sans-serif" font-size="12" lengthAdjust="spacing" textLength="90" x="223.5" y="152.1543">Data Modeling</text><line style="stroke:#A80036;stroke-width:1.5;" x1="195.5" x2="315.5" y1="164" y2="164"/><line style="stroke:#A80036;stroke-width:1.5;" x1="195.5" x2="315.5" y1="172" y2="172"/><!--MD5=[28e8c6167e7a32c3e314a64700f4e7fe]
class NU--><rect codeLine="25" fill="#FEFECE" filter="url(#fv1ovw1qzyr7i)" height="48" id="NU" style="stroke:#A80036;stroke-width:1.5;" width="180" x="891.5" y="210"/><ellipse cx="906.5" cy="226" fill="#ADD1B2" rx="11" ry="11" style="stroke:#A80036;stroke-width:1.0;"/><path d="M909.4688,231.6406 Q908.8906,231.9375 908.25,232.0781 Q907.6094,232.2344 906.9063,232.2344 Q904.4063,232.2344 903.0781,230.5938 Q901.7656,228.9375 901.7656,225.8125 Q901.7656,222.6875 903.0781,221.0313 Q904.4063,219.375 906.9063,219.375 Q907.6094,219.375 908.25,219.5313 Q908.9063,219.6875 909.4688,219.9844 L909.4688,222.7031 Q908.8438,222.125 908.25,221.8594 Q907.6563,221.5781 907.0313,221.5781 Q905.6875,221.5781 905,222.6563 Q904.3125,223.7188 904.3125,225.8125 Q904.3125,227.9063 905,228.9844 Q905.6875,230.0469 907.0313,230.0469 Q907.6563,230.0469 908.25,229.7813 Q908.8438,229.5 909.4688,228.9219 L909.4688,231.6406 Z " fill="#000000"/><text fill="#000000" font-family="sans-serif" font-size="12" lengthAdjust="spacing" textLength="148" x="920.5" y="230.1543">Network Understanding</text><line style="stroke:#A80036;stroke-width:1.5;" x1="892.5" x2="1070.5" y1="242" y2="242"/><line style="stroke:#A80036;stroke-width:1.5;" x1="892.5" x2="1070.5" y1="250" y2="250"/><!--MD5=[922d291f43d024f1166d0eae9b0ee0bb]
class CM--><rect codeLine="27" fill="#FEFECE" filter="url(#fv1ovw1qzyr7i)" height="48" id="CM" style="stroke:#A80036;stroke-width:1.5;" width="166" x="1478.5" y="132"/><ellipse cx="1493.5" cy="148" fill="#ADD1B2" rx="11" ry="11" style="stroke:#A80036;stroke-width:1.0;"/><path d="M1496.4688,153.6406 Q1495.8906,153.9375 1495.25,154.0781 Q1494.6094,154.2344 1493.9063,154.2344 Q1491.4063,154.2344 1490.0781,152.5938 Q1488.7656,150.9375 1488.7656,147.8125 Q1488.7656,144.6875 1490.0781,143.0313 Q1491.4063,141.375 1493.9063,141.375 Q1494.6094,141.375 1495.25,141.5313 Q1495.9063,141.6875 1496.4688,141.9844 L1496.4688,144.7031 Q1495.8438,144.125 1495.25,143.8594 Q1494.6563,143.5781 1494.0313,143.5781 Q1492.6875,143.5781 1492,144.6563 Q1491.3125,145.7188 1491.3125,147.8125 Q1491.3125,149.9063 1492,150.9844 Q1492.6875,152.0469 1494.0313,152.0469 Q1494.6563,152.0469 1495.25,151.7813 Q1495.8438,151.5 1496.4688,150.9219 L1496.4688,153.6406 Z " fill="#000000"/><text fill="#000000" font-family="sans-serif" font-size="12" lengthAdjust="spacing" textLength="134" x="1507.5" y="152.1543">Change Management</text><line style="stroke:#A80036;stroke-width:1.5;" x1="1479.5" x2="1643.5" y1="164" y2="164"/><line style="stroke:#A80036;stroke-width:1.5;" x1="1479.5" x2="1643.5" y1="172" y2="172"/><!--MD5=[3948de7321e8f5268222a1adac03d41c]
class CL--><rect codeLine="29" fill="#FEFECE" filter="url(#fv1ovw1qzyr7i)" height="48" id="CL" style="stroke:#A80036;stroke-width:1.5;" width="161" x="881" y="7"/><ellipse cx="896" cy="23" fill="#ADD1B2" rx="11" ry="11" style="stroke:#A80036;stroke-width:1.0;"/><path d="M898.9688,28.6406 Q898.3906,28.9375 897.75,29.0781 Q897.1094,29.2344 896.4063,29.2344 Q893.9063,29.2344 892.5781,27.5938 Q891.2656,25.9375 891.2656,22.8125 Q891.2656,19.6875 892.5781,18.0313 Q893.9063,16.375 896.4063,16.375 Q897.1094,16.375 897.75,16.5313 Q898.4063,16.6875 898.9688,16.9844 L898.9688,19.7031 Q898.3438,19.125 897.75,18.8594 Q897.1563,18.5781 896.5313,18.5781 Q895.1875,18.5781 894.5,19.6563 Q893.8125,20.7188 893.8125,22.8125 Q893.8125,24.9063 894.5,25.9844 Q895.1875,27.0469 896.5313,27.0469 Q897.1563,27.0469 897.75,26.7813 Q898.3438,26.5 898.9688,25.9219 L898.9688,28.6406 Z " fill="#000000"/><text fill="#000000" font-family="sans-serif" font-size="12" lengthAdjust="spacing" textLength="129" x="910" y="27.1543">Continuous Learning</text><line style="stroke:#A80036;stroke-width:1.5;" x1="882" x2="1041" y1="39" y2="39"/><line style="stroke:#A80036;stroke-width:1.5;" x1="882" x2="1041" y1="47" y2="47"/><!--MD5=[a21db0d20750fa87841d6f4a64fbf690]
class CF--><rect codeLine="31" fill="#FEFECE" filter="url(#fv1ovw1qzyr7i)" height="48" id="CF" style="stroke:#A80036;stroke-width:1.5;" width="133" x="1469" y="538"/><ellipse cx="1484" cy="554" fill="#ADD1B2" rx="11" ry="11" style="stroke:#A80036;stroke-width:1.0;"/><path d="M1486.9688,559.6406 Q1486.3906,559.9375 1485.75,560.0781 Q1485.1094,560.2344 1484.4063,560.2344 Q1481.9063,560.2344 1480.5781,558.5938 Q1479.2656,556.9375 1479.2656,553.8125 Q1479.2656,550.6875 1480.5781,549.0313 Q1481.9063,547.375 1484.4063,547.375 Q1485.1094,547.375 1485.75,547.5313 Q1486.4063,547.6875 1486.9688,547.9844 L1486.9688,550.7031 Q1486.3438,550.125 1485.75,549.8594 Q1485.1563,549.5781 1484.5313,549.5781 Q1483.1875,549.5781 1482.5,550.6563 Q1481.8125,551.7188 1481.8125,553.8125 Q1481.8125,555.9063 1482.5,556.9844 Q1483.1875,558.0469 1484.5313,558.0469 Q1485.1563,558.0469 1485.75,557.7813 Q1486.3438,557.5 1486.9688,556.9219 L1486.9688,559.6406 Z " fill="#000000"/><text fill="#000000" font-family="sans-serif" font-size="12" lengthAdjust="spacing" textLength="101" x="1498" y="558.1543">Customer Focus</text><line style="stroke:#A80036;stroke-width:1.5;" x1="1470" x2="1601" y1="570" y2="570"/><line style="stroke:#A80036;stroke-width:1.5;" x1="1470" x2="1601" y1="578" y2="578"/><!--MD5=[5796070a0b255eb187f114038b57a397]
link TE to SD--><path codeLine="34" d="M317.77,336.14 C338.94,354.09 368.66,379.3 392.95,399.91 " fill="none" id="TE-to-SD" style="stroke:#A80036;stroke-width:1.0;"/><polygon fill="none" points="397.63,394.69,408.35,412.97,388.57,405.37,397.63,394.69" style="stroke:#A80036;stroke-width:1.0;"/><text fill="#000000" font-family="sans-serif" font-size="13" lengthAdjust="spacing" textLength="130" x="373.5" y="379.0669">Informs Architecture</text><!--MD5=[117bd657f21e8fad2f572cd78e976334]
link SD to CC--><path codeLine="35" d="M497.38,461.14 C550.23,480.89 626.6,509.44 684.16,530.96 " fill="none" id="SD-to-CC" style="stroke:#A80036;stroke-width:1.0;"/><polygon fill="none" points="686.61,524.41,702.9,537.97,681.71,537.52,686.61,524.41" style="stroke:#A80036;stroke-width:1.0;"/><text fill="#000000" font-family="sans-serif" font-size="13" lengthAdjust="spacing" textLength="117" x="621.5" y="504.0669">Depends on Cloud</text><!--MD5=[7780a0ebd897bccb518dfac7516bc003]
link PS to TE--><path codeLine="36" d="M81.02,180.3 C90.5,203.16 107.94,237.48 133.5,258 C151.19,272.21 172.89,282.69 194.44,290.4 " fill="none" id="PS-to-TE" style="stroke:#A80036;stroke-width:1.0;"/><polygon fill="none" points="196.77,283.79,213.65,296.6,192.47,297.12,196.77,283.79" style="stroke:#A80036;stroke-width:1.0;"/><text fill="#000000" font-family="sans-serif" font-size="13" lengthAdjust="spacing" textLength="104" x="134.5" y="238.5669">Enabled by Tech</text><!--MD5=[49bf3e8448af3ff02ff5a138cf068b47]
link CS to PM--><path codeLine="37" d="M1339.56,180.12 C1352.75,203.17 1376,237.95 1405.5,258 C1430.19,274.77 1460.19,286.3 1488.74,294.2 " fill="none" id="CS-to-PM" style="stroke:#A80036;stroke-width:1.0;"/><polygon fill="none" points="1490.51,287.43,1508.19,299.11,1487.09,301,1490.51,287.43" style="stroke:#A80036;stroke-width:1.0;"/><text fill="#000000" font-family="sans-serif" font-size="13" lengthAdjust="spacing" textLength="153" x="1406.5" y="238.5669">Crucial for Management</text><!--MD5=[32ee3189742a1a70ad3d1fb360f98ffc]
link PM to BA--><path codeLine="38" d="M1594.77,336.14 C1598.42,352.2 1603.4,374.08 1607.77,393.26 " fill="none" id="PM-to-BA" style="stroke:#A80036;stroke-width:1.0;"/><polygon fill="none" points="1614.64,391.91,1612.26,412.97,1600.99,395.02,1614.64,391.91" style="stroke:#A80036;stroke-width:1.0;"/><text fill="#000000" font-family="sans-serif" font-size="13" lengthAdjust="spacing" textLength="177" x="1605.5" y="379.0669">Informed by Business Goals</text><!--MD5=[f1690c4310a56228685d7839a802cf1c]
link BA to CF--><path codeLine="39" d="M1602.08,461.14 C1590.79,478.06 1575.21,501.43 1561.96,521.31 " fill="none" id="BA-to-CF" style="stroke:#A80036;stroke-width:1.0;"/><polygon fill="none" points="1567.77,525.21,1550.85,537.97,1556.12,517.44,1567.77,525.21" style="stroke:#A80036;stroke-width:1.0;"/><text fill="#000000" font-family="sans-serif" font-size="13" lengthAdjust="spacing" textLength="179" x="1581.5" y="504.0669">Aligns with Customer Needs</text><!--MD5=[6afede6f8d24856dea202f5f4c980bfc]
link TC to CS--><path codeLine="40" d="M1334.19,662.81 C1333.11,581.3 1329.49,307.15 1328.07,200.22 " fill="none" id="TC-to-CS" style="stroke:#A80036;stroke-width:1.0;"/><polygon fill="none" points="1321.07,200.16,1327.81,180.07,1335.07,199.98,1321.07,200.16" style="stroke:#A80036;stroke-width:1.0;"/><text fill="#000000" font-family="sans-serif" font-size="13" lengthAdjust="spacing" textLength="175" x="1331.5" y="441.5669">Enabled by Communication</text><!--MD5=[060736bd3d3fb5584e609af7b6ded770]
link CC to SC--><path codeLine="41" d="M744.94,586.14 C730.34,603.4 710.06,627.38 693.04,647.52 " fill="none" id="CC-to-SC" style="stroke:#A80036;stroke-width:1.0;"/><polygon fill="none" points="698.23,652.22,679.97,662.97,687.54,643.18,698.23,652.22" style="stroke:#A80036;stroke-width:1.0;"/><text fill="#000000" font-family="sans-serif" font-size="13" lengthAdjust="spacing" textLength="111" x="720.5" y="629.0669">Requires Security</text><!--MD5=[ae9a0921b04bffed091a00518f4abec9]
link SC to VM--><path codeLine="42" d="M660.5,711.14 C660.5,727.11 660.5,748.84 660.5,767.95 " fill="none" id="SC-to-VM" style="stroke:#A80036;stroke-width:1.0;"/><polygon fill="none" points="667.5,767.97,660.5,787.97,653.5,767.97,667.5,767.97" style="stroke:#A80036;stroke-width:1.0;"/><text fill="#000000" font-family="sans-serif" font-size="13" lengthAdjust="spacing" textLength="161" x="661.5" y="754.0669">Influences Vendor Choice</text><!--MD5=[3ad773b5cc8729121039768d8469e289]
link VM to SD--><path codeLine="43" d="M614.24,787.9 C562.72,759.36 481.92,705.54 445.5,633 C421.52,585.23 423.29,522.34 428.18,481.07 " fill="none" id="VM-to-SD" style="stroke:#A80036;stroke-width:1.0;"/><polygon fill="none" points="421.27,479.95,430.99,461.13,435.13,481.91,421.27,479.95" style="stroke:#A80036;stroke-width:1.0;"/><text fill="#000000" font-family="sans-serif" font-size="13" lengthAdjust="spacing" textLength="133" x="446.5" y="629.0669">Impacts Architecture</text><!--MD5=[31b9a19f24fdaa081c5a8b0ef6dc1f0a]
link DM to TE--><path codeLine="44" d="M250.51,180.08 C247,200.96 244.23,232.28 252.5,258 C253.91,262.38 255.83,266.7 258.06,270.88 " fill="none" id="DM-to-TE" style="stroke:#A80036;stroke-width:1.0;"/><polygon fill="none" points="264.13,267.38,269.22,287.95,252.42,275.05,264.13,267.38" style="stroke:#A80036;stroke-width:1.0;"/><text fill="#000000" font-family="sans-serif" font-size="13" lengthAdjust="spacing" textLength="150" x="253.5" y="238.5669">Depends on Algorithms</text><!--MD5=[a876da5e373ca8de103cf05d70774f5e]
link NU to CC--><path codeLine="45" d="M989.19,258.36 C994.94,280.62 999.24,313.92 982.5,336 C952.66,375.36 910.67,331.33 875.5,366 C828.63,412.21 870.75,453.74 833.5,508 C829.28,514.15 824.11,519.9 818.53,525.18 " fill="none" id="NU-to-CC" style="stroke:#A80036;stroke-width:1.0;"/><polygon fill="none" points="822.98,530.58,803.13,537.99,814.03,519.82,822.98,530.58" style="stroke:#A80036;stroke-width:1.0;"/><text fill="#000000" font-family="sans-serif" font-size="13" lengthAdjust="spacing" textLength="212" x="876.5" y="379.0669">Essential for Distributed Systems</text><!--MD5=[2bbd59ecb08e893705e1b08f59031998]
link CM to PM--><path codeLine="46" d="M1564.75,180.34 C1567.72,200.86 1572.41,231.5 1577.5,258 C1578.12,261.22 1578.79,264.55 1579.49,267.89 " fill="none" id="CM-to-PM" style="stroke:#A80036;stroke-width:1.0;"/><polygon fill="none" points="1586.42,266.81,1583.91,287.85,1572.75,269.84,1586.42,266.81" style="stroke:#A80036;stroke-width:1.0;"/><text fill="#000000" font-family="sans-serif" font-size="13" lengthAdjust="spacing" textLength="170" x="1578.5" y="238.5669">Managed by Project Scope</text><!--MD5=[cfab4eea7dec17b8163acf9ebdb5a670]
link CL to TE--><path codeLine="47" d="M880.93,37.85 C754.6,48.64 518.08,75.89 457.5,132 C413.42,172.83 449.88,214.44 408.5,258 C401.15,265.74 392.46,272.43 383.19,278.2 " fill="none" id="CL-to-TE" style="stroke:#A80036;stroke-width:1.0;"/><polygon fill="none" points="386.34,284.45,365.43,287.89,379.63,272.16,386.34,284.45" style="stroke:#A80036;stroke-width:1.0;"/><text fill="#000000" font-family="sans-serif" font-size="13" lengthAdjust="spacing" textLength="153" x="458.5" y="160.5669">Updates Technical Skills</text><!--MD5=[4f00578fd66bb92eb91a8ce760f7ec46]
link CL to SD--><path codeLine="48" d="M880.77,40.61 C810.67,49.29 715.51,64.37 683.5,85 C640.07,112.99 656.73,147.59 616.5,180 C589.82,201.49 567.03,183.36 545.5,210 C496.3,270.88 555.28,317.45 512.5,383 C508.29,389.45 503,395.32 497.17,400.62 " fill="none" id="CL-to-SD" style="stroke:#A80036;stroke-width:1.0;"/><polygon fill="none" points="501.45,406.16,481.38,412.93,492.85,395.12,501.45,406.16" style="stroke:#A80036;stroke-width:1.0;"/><text fill="#000000" font-family="sans-serif" font-size="13" lengthAdjust="spacing" textLength="136" x="546.5" y="238.5669">Updates Architecture</text><!--MD5=[c01556d9e506155480fc447541bc4ea6]
link CL to PS--><path codeLine="49" d="M880.94,33.87 C667.39,39.21 101.18,56.04 73.5,85 C66.71,92.1 64.11,101.71 63.73,111.52 " fill="none" id="CL-to-PS" style="stroke:#A80036;stroke-width:1.0;"/><polygon fill="none" points="70.74,111.28,65.56,131.82,56.79,112.53,70.74,111.28" style="stroke:#A80036;stroke-width:1.0;"/><text fill="#000000" font-family="sans-serif" font-size="13" lengthAdjust="spacing" textLength="162" x="74.5" y="98.0669">Updates Problem-Solving</text><!--MD5=[bce4f355cc5aa00ed3421966d7f218df]
link CL to CS--><path codeLine="50" d="M1042.08,41.92 C1092.33,49.82 1157.64,63.25 1212.5,85 C1235.57,94.15 1259.29,107.75 1279.15,120.54 " fill="none" id="CL-to-CS" style="stroke:#A80036;stroke-width:1.0;"/><polygon fill="none" points="1283.08,114.75,1295.84,131.67,1275.31,126.39,1283.08,114.75" style="stroke:#A80036;stroke-width:1.0;"/><text fill="#000000" font-family="sans-serif" font-size="13" lengthAdjust="spacing" textLength="159" x="1246.5" y="98.0669">Updates Communication</text><!--MD5=[3464ae8464630442c705a1d29fb293fc]
link CL to PM--><path codeLine="51" d="M1042.25,34.19 C1215.88,39.45 1613.41,54.68 1666.5,85 C1741.24,127.68 1804.14,188.41 1753.5,258 C1738.28,278.91 1714.64,291.74 1690.01,299.57 " fill="none" id="CL-to-PM" style="stroke:#A80036;stroke-width:1.0;"/><polygon fill="none" points="1691.77,306.34,1670.64,304.73,1688.16,292.82,1691.77,306.34" style="stroke:#A80036;stroke-width:1.0;"/><text fill="#000000" font-family="sans-serif" font-size="13" lengthAdjust="spacing" textLength="191" x="1766.5" y="160.5669">Updates Project Management</text><!--MD5=[a62cf83a87eb60c4b9ed65acf5460c99]
link CL to BA--><path codeLine="52" d="M1042.28,33.71 C1270.52,39.38 1907.53,61.46 1966.5,132 C2053.42,235.97 2029.57,227.87 1791.5,383 C1766.58,399.24 1736.44,410.7 1708.29,418.71 " fill="none" id="CL-to-BA" style="stroke:#A80036;stroke-width:1.0;"/><polygon fill="none" points="1709.86,425.54,1688.74,423.83,1706.31,411.99,1709.86,425.54" style="stroke:#A80036;stroke-width:1.0;"/><text fill="#000000" font-family="sans-serif" font-size="13" lengthAdjust="spacing" textLength="172" x="2013.5" y="238.5669">Updates Business Acumen</text><!--MD5=[688a1f21c5187a7f2488f758cf9f4b84]
link CL to TC--><path codeLine="53" d="M1042.34,37.2 C1077.55,43.65 1116.42,57.17 1141.5,85 C1231.66,185.05 1156.06,254.53 1196.5,383 C1227.23,480.62 1281.46,588.15 1311.99,645.18 " fill="none" id="CL-to-TC" style="stroke:#A80036;stroke-width:1.0;"/><polygon fill="none" points="1318.18,641.9,1321.54,662.82,1305.87,648.57,1318.18,641.9" style="stroke:#A80036;stroke-width:1.0;"/><text fill="#000000" font-family="sans-serif" font-size="13" lengthAdjust="spacing" textLength="123" x="1197.5" y="379.0669">Updates Teamwork</text><!--MD5=[69f138ac882a0b6df47c16a968e4919f]
link CL to CC--><path codeLine="54" d="M943.09,55.07 C909.84,98.08 840.1,194.62 806.5,288 C792.05,328.16 798.93,340.81 792.5,383 C785.46,429.21 777.1,482.11 771.36,518.16 " fill="none" id="CL-to-CC" style="stroke:#A80036;stroke-width:1.0;"/><polygon fill="none" points="778.26,519.32,768.2,537.97,764.44,517.12,778.26,519.32" style="stroke:#A80036;stroke-width:1.0;"/><text fill="#000000" font-family="sans-serif" font-size="13" lengthAdjust="spacing" textLength="166" x="807.5" y="316.5669">Updates Cloud Knowledge</text><!--MD5=[438e7da2bcc7455f9346b921577d6533]
link CL to SC--><path codeLine="55" d="M930.67,55.1 C849.69,116.55 634.77,284.83 599.5,366 C558.43,460.52 606.73,582.61 637.98,645.13 " fill="none" id="CL-to-SC" style="stroke:#A80036;stroke-width:1.0;"/><polygon fill="none" points="644.2,641.9,647.21,662.88,631.77,648.36,644.2,641.9" style="stroke:#A80036;stroke-width:1.0;"/><text fill="#000000" font-family="sans-serif" font-size="13" lengthAdjust="spacing" textLength="183" x="600.5" y="379.0669">Updates Security Awareness</text><!--MD5=[f16c6b0e85dc765f3281cce5a427b966]
link CL to VM--><path codeLine="56" d="M1042.05,47.39 C1062.15,55.24 1081.4,67.1 1093.5,85 C1167.68,194.72 1166.69,272.62 1093.5,383 C1074.57,411.55 1045.96,388.03 1022.5,413 C994.92,442.35 992.5,458.23 992.5,498.5 C992.5,498.5 992.5,498.5 992.5,688 C992.5,737.76 859.69,773.78 762.07,793.53 " fill="none" id="CL-to-VM" style="stroke:#A80036;stroke-width:1.0;"/><polygon fill="none" points="763.11,800.46,742.14,797.44,760.42,786.72,763.11,800.46" style="stroke:#A80036;stroke-width:1.0;"/><text fill="#000000" font-family="sans-serif" font-size="13" lengthAdjust="spacing" textLength="174" x="1023.5" y="441.5669">Updates Vendor Evaluation</text><!--MD5=[dcd69fe8f62542281830011b27eb7c57]
link CL to DM--><path codeLine="57" d="M880.92,32 C704.12,32.85 294.51,39.73 252.5,85 C245.72,92.31 243.59,102.11 243.82,112.05 " fill="none" id="CL-to-DM" style="stroke:#A80036;stroke-width:1.0;"/><polygon fill="none" points="250.76,111.1,246.9,131.94,236.92,113.24,250.76,111.1" style="stroke:#A80036;stroke-width:1.0;"/><text fill="#000000" font-family="sans-serif" font-size="13" lengthAdjust="spacing" textLength="150" x="253.5" y="98.0669">Updates Data Modeling</text><!--MD5=[5bea0a5692f1dd0c9257534a1c19eda7]
link CL to NU--><path codeLine="58" d="M959.9,55.21 C959.34,64.47 958.78,75.23 958.5,85 C958.29,92.55 957.84,94.47 958.5,102 C961.09,131.68 966.91,164.73 972.05,190.2 " fill="none" id="CL-to-NU" style="stroke:#A80036;stroke-width:1.0;"/><polygon fill="none" points="978.94,188.96,976.2,209.97,965.24,191.84,978.94,188.96" style="stroke:#A80036;stroke-width:1.0;"/><text fill="#000000" font-family="sans-serif" font-size="13" lengthAdjust="spacing" textLength="129" x="959.5" y="98.0669">Updates Networking</text><!--MD5=[108db7c5d834c1da8beb241a13b17533]
link CL to CM--><path codeLine="59" d="M1042.02,33.51 C1133.83,37.03 1287.62,48.45 1414.5,85 C1445.47,93.92 1478.01,108.78 1504.58,122.52 " fill="none" id="CL-to-CM" style="stroke:#A80036;stroke-width:1.0;"/><polygon fill="none" points="1507.99,116.4,1522.34,131.99,1501.4,128.76,1507.99,116.4" style="stroke:#A80036;stroke-width:1.0;"/><text fill="#000000" font-family="sans-serif" font-size="13" lengthAdjust="spacing" textLength="196" x="1461.5" y="98.0669">Updates Change Management</text><!--MD5=[7542ab1cb776d5b3e6f5ef6d35d37da7]
link CF to TC--><path codeLine="60" d="M1497.69,586.14 C1467.23,604.78 1423.98,631.25 1389.65,652.25 " fill="none" id="CF-to-TC" style="stroke:#A80036;stroke-width:1.0;"/><polygon fill="none" points="1392.85,658.5,1372.14,662.97,1385.54,646.56,1392.85,658.5" style="stroke:#A80036;stroke-width:1.0;"/><text fill="#000000" font-family="sans-serif" font-size="13" lengthAdjust="spacing" textLength="145" x="1447.5" y="629.0669">Influences Team Focus</text><!--MD5=[43037f8df081c2c4b798a52f50330b09]
@startuml
!define RECTANGLE class

RECTANGLE "Technical Expertise" as TE {
}
RECTANGLE "Systems Design" as SD {
}
RECTANGLE "Problem-Solving" as PS {
}
RECTANGLE "Communication Skills" as CS {
}
RECTANGLE "Project Management" as PM {
}
RECTANGLE "Business Acumen" as BA {
}
RECTANGLE "Team Collaboration" as TC {
}
RECTANGLE "Cloud Computing" as CC {
}
RECTANGLE "Security Compliance" as SC {
}
RECTANGLE "Vendor Management" as VM {
}
RECTANGLE "Data Modeling" as DM {
}
RECTANGLE "Network Understanding" as NU {
}
RECTANGLE "Change Management" as CM {
}
RECTANGLE "Continuous Learning" as CL {
}
RECTANGLE "Customer Focus" as CF {
}

TE - -|> SD : "Informs Architecture"
SD - -|> CC : "Depends on Cloud"
PS - -|> TE : "Enabled by Tech"
CS - -|> PM : "Crucial for Management"
PM - -|> BA : "Informed by Business Goals"
BA - -|> CF : "Aligns with Customer Needs"
TC - -|> CS : "Enabled by Communication"
CC - -|> SC : "Requires Security"
SC - -|> VM : "Influences Vendor Choice"
VM - -|> SD : "Impacts Architecture"
DM - -|> TE : "Depends on Algorithms"
NU - -|> CC : "Essential for Distributed Systems"
CM - -|> PM : "Managed by Project Scope"
CL - -|> TE : "Updates Technical Skills"
CL - -|> SD : "Updates Architecture"
CL - -|> PS : "Updates Problem-Solving"
CL - -|> CS : "Updates Communication"
CL - -|> PM : "Updates Project Management"
CL - -|> BA : "Updates Business Acumen"
CL - -|> TC : "Updates Teamwork"
CL - -|> CC : "Updates Cloud Knowledge"
CL - -|> SC : "Updates Security Awareness"
CL - -|> VM : "Updates Vendor Evaluation"
CL - -|> DM : "Updates Data Modeling"
CL - -|> NU : "Updates Networking"
CL - -|> CM : "Updates Change Management"
CF - -|> TC : "Influences Team Focus"
@enduml

@startuml

class "Technical Expertise" as TE {
}
class "Systems Design" as SD {
}
class "Problem-Solving" as PS {
}
class "Communication Skills" as CS {
}
class "Project Management" as PM {
}
class "Business Acumen" as BA {
}
class "Team Collaboration" as TC {
}
class "Cloud Computing" as CC {
}
class "Security Compliance" as SC {
}
class "Vendor Management" as VM {
}
class "Data Modeling" as DM {
}
class "Network Understanding" as NU {
}
class "Change Management" as CM {
}
class "Continuous Learning" as CL {
}
class "Customer Focus" as CF {
}

TE - -|> SD : "Informs Architecture"
SD - -|> CC : "Depends on Cloud"
PS - -|> TE : "Enabled by Tech"
CS - -|> PM : "Crucial for Management"
PM - -|> BA : "Informed by Business Goals"
BA - -|> CF : "Aligns with Customer Needs"
TC - -|> CS : "Enabled by Communication"
CC - -|> SC : "Requires Security"
SC - -|> VM : "Influences Vendor Choice"
VM - -|> SD : "Impacts Architecture"
DM - -|> TE : "Depends on Algorithms"
NU - -|> CC : "Essential for Distributed Systems"
CM - -|> PM : "Managed by Project Scope"
CL - -|> TE : "Updates Technical Skills"
CL - -|> SD : "Updates Architecture"
CL - -|> PS : "Updates Problem-Solving"
CL - -|> CS : "Updates Communication"
CL - -|> PM : "Updates Project Management"
CL - -|> BA : "Updates Business Acumen"
CL - -|> TC : "Updates Teamwork"
CL - -|> CC : "Updates Cloud Knowledge"
CL - -|> SC : "Updates Security Awareness"
CL - -|> VM : "Updates Vendor Evaluation"
CL - -|> DM : "Updates Data Modeling"
CL - -|> NU : "Updates Networking"
CL - -|> CM : "Updates Change Management"
CF - -|> TC : "Influences Team Focus"
@enduml

PlantUML version 1.2021.3(Mon Mar 22 16:53:19 UTC 2021)
(GPL source distribution)
Java Runtime: OpenJDK Runtime Environment
JVM: OpenJDK 64-Bit Server VM
Default Encoding: UTF-8
Language: en
Country: null
--></g></svg>